<svg xmlns="http://www.w3.org/2000/svg" xmlns:xlink="http://www.w3.org/1999/xlink" version="1.1" baseProfile="tiny" x="0px" y="0px" width="100px" height="100px" viewBox="0 0 100 100" xml:space="preserve">
<g id="Captions">
</g>
<g id="Your_Icon">
	<path fill-rule="evenodd" fill="#000000" d="M43,22c0-5.141-0.84-6-6-6h-6c-5.1,0-6,0.961-6,6v6h-8c-5.16,0-6,1.121-6,6v43.996   C10.98,82.855,12.199,84,17,84h66c4.801,0,6.02-1.145,6-6.004V34c0-4.879-0.84-6-6-6h-8v-6c0-5.039-0.9-6-6-6h-6   c-5.16,0-6,0.859-6,6v6H43V22z"/>
</g>
</svg>