<svg xmlns="http://www.w3.org/2000/svg" xmlns:xlink="http://www.w3.org/1999/xlink" version="1.1" id="Layer_1" x="0px" y="0px" width="100px" height="100px" viewBox="0 0 100 100" enable-background="new 0 0 100 100" xml:space="preserve">
<rect fill="none" width="100" height="100"/>
<g>
	<path d="M80.054,28.561l-2.067-6.267c0-0.031-0.008-0.058-0.022-0.084l-0.692-2.121c-0.015-0.027-0.015-0.046-0.03-0.077   l-0.323-0.999c-0.061-0.166-0.161-0.323-0.299-0.446c-1.96-3.766-6.232-6.459-10.298-6.459H48.311   c-4.054,0-8.314,2.678-10.286,6.42c-0.142,0.131-0.25,0.3-0.312,0.492l-0.327,0.991c-0.011,0.031-0.019,0.046-0.027,0.069   l-2.843,8.68l-3.781,1.064l-0.822-3.815c-0.369-1.372-1.844-2.255-3.239-1.879l-12.553,3.332c-1.41,0.376-2.244,1.833-1.895,3.193   l0.938,4.242L13.1,34.936C8.631,36.134,5,40.883,5,45.502v3.339c0,1.272,0.185,2.801,0.4,4.568   c0.269,2.215,0.576,4.735,0.576,7.325c0,2.874-0.296,6.04-0.553,8.838C5.208,71.97,5,74.221,5,75.974v3.273   c0,4.765,3.889,8.645,8.646,8.645H86.34c4.772,0,8.66-3.88,8.66-8.645V44.691C95,35.796,88.476,28.795,80.054,28.561z    M39.565,20.742c0.012-0.023,0.023-0.046,0.031-0.077l0.181-0.561c0.058-0.062,0.1-0.146,0.15-0.231   c1.502-3.116,5.099-5.463,8.384-5.463h18.011c3.289,0,6.886,2.344,8.376,5.463c0.047,0.081,0.101,0.162,0.154,0.231l0.185,0.561   c0.015,0.023,0.015,0.05,0.022,0.077l0.699,2.117c0.008,0.031,0.016,0.058,0.031,0.077l1.768,5.391   c-3.397-0.388-11.166-1.16-20.241-1.16c-9.082,0-16.851,0.772-20.244,1.16L39.565,20.742z M14.71,29.687l12.633-3.343   c0.142,0,0.303,0.088,0.334,0.208l0.846,3.896l-3.854,1.076c-0.031,0.008-0.058,0.008-0.081,0.016   c-0.008,0-0.031,0.008-0.042,0.015l-9.187,2.575l-0.891-4.012C14.417,29.933,14.541,29.733,14.71,29.687z M7.302,79.247v-3.273   c0-1.645,0.204-3.858,0.423-6.187c0.25-2.851,0.557-6.071,0.557-9.053c0-2.735-0.323-5.317-0.596-7.602   c-0.204-1.69-0.384-3.159-0.384-4.292v-3.339c0-3.589,2.924-7.416,6.547-8.403l1.041-0.445l10.459-2.932   c1.656-0.438,3.377,0.876,3.377,2.586v3.908c0,1.291-0.265,3.224-0.565,5.456c-0.492,3.581-1.095,8.038-1.095,12.95   c0,5.156,0.534,10.082,0.988,14.424c0.357,3.42,0.672,6.363,0.672,8.784v3.758H13.646C10.149,85.587,7.302,82.743,7.302,79.247z    M92.702,79.247c0,3.496-2.858,6.34-6.362,6.34H31.024v-3.758c0-2.536-0.319-5.549-0.688-9.029   c-0.454-4.288-0.96-9.145-0.96-14.179c0-4.759,0.595-9.131,1.06-12.643c0.338-2.413,0.588-4.315,0.588-5.764v-3.908   c0-1.472-0.657-2.786-1.679-3.7l0.833-0.238c0.012,0,0.012,0.007,0.012,0l5.46-1.537c0.726-0.104,10.105-1.364,21.665-1.364   c11.979,0,21.64,1.364,21.747,1.372c0.046,0.007,0.1,0.007,0.153,0.007h0.393c7.461,0,13.094,5.956,13.094,13.844V79.247z"/>
	<path d="M57.292,36.634c-11.483,0-20.819,9.345-20.819,20.827c0,11.48,9.336,20.817,20.819,20.817   c11.473,0,20.81-9.337,20.81-20.817C78.102,45.979,68.765,36.634,57.292,36.634z M57.292,73.676   c-8.951,0-16.224-7.27-16.224-16.215c0-8.947,7.273-16.22,16.224-16.22c8.938,0,16.215,7.273,16.215,16.22   C73.507,66.406,66.229,73.676,57.292,73.676z"/>
	<path d="M57.292,44.649c-7.064,0-12.82,5.748-12.82,12.812c0,7.063,5.756,12.811,12.82,12.811c7.055,0,12.803-5.748,12.803-12.811   C70.095,50.397,64.347,44.649,57.292,44.649z M57.292,67.966c-5.796,0-10.515-4.719-10.515-10.505   c0-5.796,4.719-10.514,10.515-10.514c5.786,0,10.497,4.718,10.497,10.514C67.789,63.247,63.078,67.966,57.292,67.966z"/>
</g>
</svg>