<svg xmlns="http://www.w3.org/2000/svg" xmlns:xlink="http://www.w3.org/1999/xlink" version="1.1" x="0px" y="0px" width="100px" height="100px" viewBox="0 0 100 100" enable-background="new 0 0 100 100" xml:space="preserve">
<g id="Captions">
	<rect x="-192" width="185" height="99"/>
	<rect y="-36" width="100" height="30"/>
	<text transform="matrix(1 0 0 1 66 -19.5)" fill="#000000" font-family="'Helvetica'" font-size="2.4">http://thenounproject.com</text>
	<text transform="matrix(1 0 0 1 7.166 -24.5)"><tspan x="0" y="0" fill="#000000" font-family="'Helvetica-Bold'" font-size="6.1578">The Noun Project</tspan><tspan x="1.12" y="4.8" fill="#000000" font-family="'Helvetica-Bold'" font-size="4">Icon Template</tspan></text>
	<text transform="matrix(1 0 0 1 -178.5 10.5)" fill="#000000" font-family="'Helvetica-Bold'" font-size="6.1578">Reminders</text>
	<line fill="#000000" stroke="#FFFFFF" stroke-miterlimit="10" x1="8" y1="-14.5" x2="18" y2="-14.5"/>
	<line fill="#000000" stroke="#FFFFFF" stroke-miterlimit="10" x1="-179" y1="16.5" x2="-162" y2="16.5"/>
	<g>
		<g>
			<g>
				<rect x="-170.802" y="31.318" fill="#000000" width="8.721" height="8.642"/>
				<path fill="#000000" d="M-164.455,42.312h4.747v-4.703h-4.747V42.312z M-159.266,42.749h-5.63V37.17h5.63V42.749      L-159.266,42.749z M-166.221,44.062h8.279v-8.203h-8.279V44.062L-166.221,44.062z M-157.5,44.5h-9.163v-9.079h9.163V44.5      L-157.5,44.5z"/>
				<polygon fill="#000000" points="-166.149,44.133 -166.292,43.991 -158.013,35.787 -157.871,35.929     "/>
			</g>
		</g>
	</g>
	<rect x="-179" y="58" fill="none" width="35" height="32.5"/>
	<text transform="matrix(1 0 0 1 -179 60.1572)"><tspan x="0" y="0" fill="#000000" font-family="'Helvetica-Bold'" font-size="3">Strokes</tspan><tspan x="0" y="5" fill="#000000" font-family="'Helvetica'" font-size="2.4">Try to keep strokes at 4px</tspan><tspan x="0" y="10" fill="#000000" font-family="'Helvetica'" font-size="2.4">Minimum stroke weight is 2px</tspan><tspan x="0" y="14.5" fill="#000000" font-family="'Helvetica'" font-size="2.4">For thicker strokes use even </tspan><tspan x="0" y="17.5" fill="#000000" font-family="'Helvetica'" font-size="2.4">numbers: 6px, 8px etc.</tspan><tspan x="0" y="22" fill="#000000" font-family="'Helvetica-Bold'" font-size="2.4">Remember to expand strokes </tspan><tspan x="0" y="25" fill="#000000" font-family="'Helvetica-Bold'" font-size="2.4">before saving as an SVG </tspan></text>
	<rect x="-136.5" y="58" fill="none" width="35" height="32.5"/>
	<text transform="matrix(1 0 0 1 -136.5 60.1572)"><tspan x="0" y="0" fill="#000000" font-family="'Helvetica-Bold'" font-size="3">Size</tspan><tspan x="0" y="5" fill="#000000" font-family="'Helvetica'" font-size="2.4">Cannot be wider or taller than </tspan><tspan x="0" y="8.5" fill="#000000" font-family="'Helvetica'" font-size="2.4">100px (artboard size)</tspan><tspan x="0" y="13.5" fill="#000000" font-family="'Helvetica'" font-size="2.4">Scale your icon to fill as much of </tspan><tspan x="0" y="16.5" fill="#000000" font-family="'Helvetica'" font-size="2.4">the artboard as possible</tspan></text>
	<rect x="-94" y="58" fill="none" width="35" height="32.5"/>
	<text transform="matrix(1 0 0 1 -94 60.1572)"><tspan x="0" y="0" fill="#000000" font-family="'Helvetica-Bold'" font-size="3">Ungroup</tspan><tspan x="0" y="5" fill="#000000" font-family="'Helvetica'" font-size="2.4">If your design has more than one </tspan><tspan x="0" y="8" fill="#000000" font-family="'Helvetica'" font-size="2.4">shape, make sure to ungroup</tspan></text>
	<rect x="-50" y="58" fill="none" width="35" height="32.5"/>
	<text transform="matrix(1 0 0 1 -50 60.1572)"><tspan x="0" y="0" fill="#000000" font-family="'Helvetica-Bold'" font-size="3">Save as</tspan><tspan x="0" y="5" fill="#000000" font-family="'Helvetica'" font-size="2.4">Save as .SVG and make sure </tspan><tspan x="0" y="8" fill="#000000" font-family="'Helvetica'" font-size="2.4">&#8220;Use Artboards&#8221; is checked</tspan></text>
	<text transform="matrix(1.0074 0 0 1 -125.542 30.5933)" fill="#000000" font-family="'Helvetica'" font-size="2.5731">100px</text>
	<text transform="matrix(1.0074 0 0 1 -41 39)" fill="#000000" font-family="'Helvetica-Bold'" font-size="5.1462">.SVG</text>
	<rect x="-126.514" y="34.815" fill="#000000" width="10.261" height="10.185"/>
	<rect x="-126.477" y="31.766" fill="#000000" width="0.522" height="2.337"/>
	<rect x="-116.812" y="31.766" fill="#000000" width="0.523" height="2.337"/>
	<rect x="-127" y="32.337" fill="#000000" width="11.233" height="0.572"/>
	<g>
		<rect x="-83.805" y="33.844" fill="#000000" width="10.305" height="10.156"/>
		<rect x="-76.809" y="28.707" fill="#000000" width="3.308" height="3.261"/>
	</g>
	<rect x="-178.5" y="22.5" fill="#000000" stroke="#FFFFFF" stroke-miterlimit="10" width="30" height="30"/>
	<rect x="-136.5" y="22.5" fill="#000000" stroke="#FFFFFF" stroke-miterlimit="10" width="30" height="30"/>
	<rect x="-93.5" y="22.5" fill="#000000" stroke="#FFFFFF" stroke-miterlimit="10" width="30" height="30"/>
	<rect x="-49.5" y="22.5" fill="#000000" stroke="#FFFFFF" stroke-miterlimit="10" width="30" height="30"/>
</g>
<g id="Your_Icon">
	<g>
		<path fill="#000000" d="M31.7,16.09h2.8c4.43,0,8.02-3.59,8.02-8.04c0-4.46-3.6-8.05-8.04-8.05H31.7c-1.09,0-1.98,0.9-1.98,1.99    v12.1C29.72,15.19,30.61,16.09,31.7,16.09z"/>
		<path fill="#000000" d="M40.35,22.13l-2.74,11.79c-0.25,1.07,0.42,2.14,1.48,2.39l2.72,0.65c4.32,1.01,8.63-1.67,9.64-6.01    c1-4.34-1.69-8.66-6.01-9.67l-2.71-0.63C41.67,20.4,40.6,21.07,40.35,22.13z"/>
		<path fill-rule="evenodd" clip-rule="evenodd" fill="#000000" d="M50.99,97.609c-13.57,0-24.61-11.09-24.61-24.719    c0-13.641,11.04-24.73,24.61-24.73c13.58,0,24.619,11.09,24.619,24.73C75.609,86.52,64.57,97.609,50.99,97.609z M74.74,17.93V33.8    c0,0.8,0.65,1.46,1.449,1.46h0.141v7.18c0,0.25,0.17,0.46,0.4,0.55v21.66c-1.291-4.08-3.541-7.82-6.65-10.94    c-5.09-5.12-11.87-7.94-19.09-7.94c-7.21,0-13.99,2.82-19.09,7.94c-2.12,2.13-3.84,4.56-5.13,7.181l3.02-13.311    c0.26,0.04,0.51-0.12,0.58-0.38l3.65-13.25c0.04-0.16,0-0.32-0.09-0.43l0.88,0.2c1.06,0.25,2.13-0.42,2.38-1.49l2-8.63    c0.25-1.07-0.41-2.14-1.48-2.39l-4.83-1.13c-1.06-0.25-2.13,0.42-2.38,1.48l-2,8.64c-0.25,1.06,0.41,2.14,1.48,2.39l1.16,0.27    c-0.13,0.06-0.24,0.19-0.27,0.35L28.3,46.72c-0.04,0.21,0.07,0.43,0.24,0.54l-3.28,14.461V29.17c0.22-0.04,0.4-0.25,0.41-0.49    l0.56-13.74c0-0.16-0.07-0.31-0.19-0.4h0.9c1.09,0,1.99-0.9,1.99-1.99V3.69c0-1.1-0.9-2-1.99-2h-4.96c-1.09,0-1.98,0.9-1.98,2    v8.86c0,1.09,0.89,1.99,1.98,1.99h1.2c-0.12,0.09-0.19,0.24-0.18,0.4l0.55,13.74c0.01,0.24,0.19,0.45,0.42,0.49V73H24    c0.03,7.2,2.83,13.971,7.9,19.061C37,97.18,43.78,100,50.99,100c7.22,0,14-2.82,19.09-7.939c5.1-5.121,7.91-11.931,7.91-19.17    V72.8h0.029V43.02c0.26-0.05,0.391-0.29,0.391-0.58v-7.18h0.23C79.439,35.26,80,34.6,80,33.8V17.93H74.74z"/>
		<path fill="#000000" d="M76.33,5.59l-0.301,0.58v0.3v10.56h0.941h0.869h0.971V6.47v-0.3L78.51,5.59V4.94l0.53-1.78    c0,0-0.74-1.2-1.09-1.35c-0.2-0.08-0.82-0.08-1.011,0C76.58,1.96,75.83,3.16,75.83,3.16l0.5,1.78V5.59z"/>
	</g>
</g>
</svg>