<svg xmlns="http://www.w3.org/2000/svg" xmlns:xlink="http://www.w3.org/1999/xlink" version="1.1" x="0px" y="0px" width="100px" height="100px" viewBox="0 0 100 100" enable-background="new 0 0 100 100" xml:space="preserve">
<g id="Captions">
</g>
<g id="Your_Icon">
	<g>
		<path d="M96.703,37.209H3.295C1.477,37.209,0,38.685,0,40.505v51.257c0,1.82,1.477,3.296,3.295,3.296h93.41    c1.818,0,3.295-1.476,3.295-3.296V40.505C100,38.685,98.523,37.209,96.703,37.209z M95.349,43.503v45.259v1.936h-1.75H6.4H4.651    v-1.935v-45.26V41.86h1.644h87.409h1.645V43.503z"/>
	</g>
	<polygon points="69.066,98.219 31.101,98.219 25.98,100 74.019,100  "/>
	<path d="M55.931,97.057c-0.654-0.264-1.255-0.542-1.773-0.836h-8.315c-0.518,0.294-1.119,0.572-1.772,0.836H55.931z"/>
</g>
</svg>